<svg xmlns="http://www.w3.org/2000/svg" xmlns:xlink="http://www.w3.org/1999/xlink" viewBox="0 0 429.18 229.3"><defs><style>.cls-1{fill:#000300;}.cls-2{fill:#fff;}.cls-3{fill:url(#linear-gradient);}.cls-4{fill:url(#linear-gradient-2);}.cls-5{fill:url(#linear-gradient-3);}.cls-6{fill:url(#linear-gradient-4);}.cls-7{fill:url(#linear-gradient-5);}.cls-8{fill:url(#linear-gradient-6);}</style><linearGradient id="linear-gradient" x1="153.2" y1="202.96" x2="153.2" y2="179.03" gradientUnits="userSpaceOnUse"><stop offset="0" stop-color="#45871b"/><stop offset="1" stop-color="#a6ce39"/></linearGradient><linearGradient id="linear-gradient-2" x1="182.92" y1="202.96" x2="182.92" y2="179.03" xlink:href="#linear-gradient"/><linearGradient id="linear-gradient-3" x1="221.12" y1="202.96" x2="221.12" y2="179.03" xlink:href="#linear-gradient"/><linearGradient id="linear-gradient-4" x1="251.27" y1="202.96" x2="251.27" y2="179.03" xlink:href="#linear-gradient"/><linearGradient id="linear-gradient-5" x1="273.33" y1="202.96" x2="273.33" y2="179.03" xlink:href="#linear-gradient"/><linearGradient id="linear-gradient-6" x1="295.58" y1="202.96" x2="295.58" y2="179.03" xlink:href="#linear-gradient"/></defs><g id="Calque_2" data-name="Calque 2"><g id="Layer_1" data-name="Layer 1"><path class="cls-1" d="M429,193.19l-8.9-79.9q-.81-8.34-2.1-17.22-.64-4.36-1.36-8.56l0,0a36.1,36.1,0,0,0-12.32-22.2,16.92,16.92,0,0,0,8.07-16.36l-2.26-20.29C408.28,12.57,394.61,0,378.85,0H328.36a31,31,0,0,0-11.81,2.39A17,17,0,0,0,307.89,0H219a16.69,16.69,0,0,0-3.68.45,16.66,16.66,0,0,0-3.8-.45H128.93a16.85,16.85,0,0,0-8.63,2.37A31.48,31.48,0,0,0,108.41,0H38.9A29.54,29.54,0,0,0,24.68,7.74C18,14.42,16.83,22.45,16.18,26.9,14,41.61,20.45,53.39,23.11,57.7L8.51,188.17a4.7,4.7,0,0,1-.31.65Q5.32,194,2.44,199.38A20.22,20.22,0,0,0,5.81,223.2a20.33,20.33,0,0,0,23.74,3.89c5.45-2.78,32.18-14.49,39.06-17.4a244.45,244.45,0,0,1,23.48-8.41c7.09-2.25,18.08-5.48,30.21-8.09,3.83-.82,7.35-1.61,10.69-2.36,21.16-4.75,35.14-7.89,78.17-8.32a21.29,21.29,0,0,0,4.09-.47,19.79,19.79,0,0,0,4,.47A409.1,409.1,0,0,1,261,185a19.2,19.2,0,0,0,2.27.13,20.25,20.25,0,0,0,4.25-.45,20.28,20.28,0,0,0,6.23,1.95,411.1,411.1,0,0,1,41.13,8.1,19.93,19.93,0,0,0,9.33.11,46.65,46.65,0,0,0,12.3,6,408.47,408.47,0,0,1,51.65,19.94,33.84,33.84,0,0,0,14.47,3.44,26.13,26.13,0,0,0,19.78-8.64C427.58,209.75,429.93,201.8,429,193.19Z"/><path class="cls-2" d="M123.57,31.25l-4.29,47.42c-.53,6-7.15,11.77-14.74,13Q84.88,94.82,65.48,99q-3.26,29.39-6.5,58.76a7.83,7.83,0,0,0,1.25,5.6c1.36,1.81,2.72,3.6,4.1,5.37A429.48,429.48,0,0,0,23.44,187q2.82-5.25,5.64-10.34a21.5,21.5,0,0,0,2.67-7.76l15-133.81a12.74,12.74,0,0,0-1-6.82c-1.23-2.61-2.45-5.27-3.66-8h69.51C118.71,20.32,124.1,25.23,123.57,31.25Zm-27.8,17.9c.33-3.21-2.36-5.64-6-5.43q-9.17.56-18.31,1.2-1.62,14.74-3.26,29.49,9.28-1.41,18.6-2.63c3.72-.5,7-3.48,7.33-6.68Z"/><path class="cls-2" d="M214.59,20.29q-.06,12.18-.11,24.36l-8-3.49a15.73,15.73,0,0,0-6.38-1.26q-18.54.15-37.05.64-.72,12.12-1.42,24.24,12.22-.68,24.47-1.07a17.59,17.59,0,0,0,6.6-1.49c2.77-1.25,5.54-2.49,8.29-3.71q-.28,14.64-.56,29.28l-8.35-3.28a16.61,16.61,0,0,0-6.67-1q-12.49.57-25,1.56-1.14,19.65-2.29,39.31,20.07-2.48,40.29-3.3a20,20,0,0,0,7-1.53q4.38-1.89,8.75-3.68,0,12.18-.11,24.36a429.06,429.06,0,0,0-93.2,11.2q2.86-3.85,5.72-7.62a10.87,10.87,0,0,0,2.32-5.52l8.58-106.42a8.06,8.06,0,0,0-1.31-5.1c-1.39-2.12-2.76-4.27-4.13-6.44Z"/><path class="cls-2" d="M314.78,139.48a11.83,11.83,0,0,0,2.5,6q2.79,3.76,5.6,7.6a429.21,429.21,0,0,0-43.17-8.5q2.39-2.64,4.74-5.28a6.68,6.68,0,0,0,1.71-5l-3.39-52.75c-8.46,3-17,6-25.71,9.18q.79,20.16,1.61,40.34a8.94,8.94,0,0,0,2.26,5.33l5.4,6.45a429.83,429.83,0,0,0-43.76-2.66l5.12-5.72a7.39,7.39,0,0,0,2-5q-.56-49.14-1.12-98.29a8.26,8.26,0,0,0-1.9-5.06l-4.6-5.8H311q-2,3.21-4,6.36a8.73,8.73,0,0,0-1.37,5.5Q310.22,85.82,314.78,139.48ZM281.25,58l-1.11-17.26q-12.54-.36-25.1-.58.56,13.84,1.1,27.69C264.62,64.52,273,61.27,281.25,58Z"/><path class="cls-2" d="M373,20.3h9c7.11-.06,13.55,6,14.39,13.56q1.14,10.14,2.26,20.3-4-2.74-8.06-5.36a15.88,15.88,0,0,0-7.35-2.56q-15-1.18-30.1-2.14c-3.4-.21-5.9,2.09-5.57,5.13q.92,8.73,1.85,17.46c.29,2.79,3.11,5.4,6.28,5.84q16.44,2.27,32.72,5.07C395.63,78.8,402.16,86,403,93.52q4.46,40,8.9,79.9c.84,7.55-4.48,10.53-12,7a428.92,428.92,0,0,0-54.32-21c-7.82-2.46-14.68-9.08-15.24-15.12l-2.46-26.22c-.37-3.92,1.93-7,6-8.2,6.57-1.87,13.06-3.76,19.49-5.72q1.62,15.41,3.26,30.8c.33,3.13,3.61,6.56,7.31,7.72q6.76,2.1,13.46,4.41c3.34,1.15,5.75-.35,5.41-3.42q-2.07-18.63-4.15-37.26c-.36-3.28-3.47-6.57-7-7.32q-16.31-3.56-32.82-6.34c-7.49-1.3-14-7.1-14.6-13.14L319.7,31.28c-.55-6,4.75-11,11.85-11H373Z"/><path class="cls-1" d="M316.15,158.32a10,10,0,0,0-8.53-4.79H295.48a10.46,10.46,0,0,0-1.86.17,10.49,10.49,0,0,0-1.87-.17H279.62a10,10,0,0,0-5.31,1.53,10,10,0,0,0-5.2-1.47H257a9.69,9.69,0,0,0-1.2.09,9.26,9.26,0,0,0-1.19-.08H242.44a9.22,9.22,0,0,0-1.17.09,9.71,9.71,0,0,0-1.21-.09H227.92a10,10,0,0,0-8.54,4.79,10,10,0,0,0-8.53-4.79H198.71a12.27,12.27,0,0,0-1.23.09,9.39,9.39,0,0,0-1.19-.08h-28a10.42,10.42,0,0,0-1.38.1c-.33,0-.64-.1-1-.1H140A10,10,0,0,0,131,168.17l.51,1L129,207.49l-1.2,2.16a10,10,0,0,0,8.76,14.83,9.69,9.69,0,0,0,3.09-.49c3.94-1.28,8-2.48,11.95-3.58a10,10,0,0,0,6.76-6.25c0-.16.09-.32.14-.49a10,10,0,0,0,7.16,3.05,9.69,9.69,0,0,0,2.06-.22c4.05-.85,8.15-1.61,12.17-2.27a10.27,10.27,0,0,0,1.85-.49h.43a9.3,9.3,0,0,0,1.48-.11c4.06-.6,8.18-1.12,12.26-1.54a10,10,0,0,0,1.24-.22l.27,0c.31,0,.62,0,.94,0,4.09-.39,8.23-.68,12.31-.88a9.78,9.78,0,0,0,2.75-.52,9.84,9.84,0,0,0,2.5.31h.28c2.1-.06,4.19-.09,6.29-.1a10.12,10.12,0,0,0,2.76-.41,10.29,10.29,0,0,0,2.78.44c4.09.06,8.23.22,12.32.47l.61,0c.18,0,.36,0,.54,0a10.78,10.78,0,0,0,1.27.18c4.09.28,8.22.66,12.3,1.13a10.34,10.34,0,0,0,1.11.07h.09a9.93,9.93,0,0,0,1.21.23c8.74,1.09,17.53,2.62,26.11,4.56a10.29,10.29,0,0,0,2.2.24,11,11,0,0,0,1.29-.11,10.1,10.1,0,0,0,1.07.32c4,1,8.07,2,12,3.18a10.18,10.18,0,0,0,2.77.39,10,10,0,0,0,8.63-15.07c-.36-.62-.72-1.22-1.08-1.82l-1.06-15.69c1.95-5.8,3.87-11.85,5.73-18l1.38-2.65A10,10,0,0,0,316.15,158.32Z"/><path class="cls-3" d="M167.9,163.57c-.19,3-.37,5.91-.56,8.86l-2.27-1.11a4.6,4.6,0,0,0-2.25-.47q-5.65.22-11.31.5l-.63,9.31q3.63-.37,7.27-.71a5.65,5.65,0,0,0,2.33-.78l2.44-1.44c-.23,3.62-.47,7.24-.7,10.86l-2.3-.93a4.39,4.39,0,0,0-2.27-.26c-2.43.33-4.86.67-7.29,1q-.63,9.23-1.25,18.46a3.14,3.14,0,0,0,.49,2c.42.62.85,1.23,1.27,1.84q-6.21,1.71-12.38,3.71c.52-.95,1-1.89,1.57-2.82a5.87,5.87,0,0,0,.78-2.48l2.76-40.94a4.16,4.16,0,0,0-.47-2.28l-1.22-2.35Z"/><path class="cls-4" d="M194.85,198.83a2.28,2.28,0,0,0,.54,1.57l1.42,1.71q-6.36.66-12.71,1.6l1.59-2.15a3.25,3.25,0,0,0,.69-1.76l.81-16.77q-4,2.07-8.12,4.3L178.32,201a2.39,2.39,0,0,0,.51,1.64l1.38,1.73q-6.33,1-12.62,2.36l1.61-2.38a3.89,3.89,0,0,0,.7-1.91l2.13-35a3,3,0,0,0-.47-1.8c-.44-.68-.87-1.37-1.3-2.06h28l-1.5,1.87a2.79,2.79,0,0,0-.64,1.64Zm-7.3-23.29c.09-1.83.17-3.66.26-5.49q-3.9.09-7.79.21c-.18,3.11-.35,6.23-.52,9.34Q183.54,177.49,187.55,175.54Z"/><path class="cls-5" d="M240.72,198.48l2.17,2.67q-6.39-.39-12.78-.49c.7-.83,1.39-1.66,2.09-2.48q-.07-7.63-.14-15.26c-2.5,5.9-5.06,11.78-7.69,17.71q-3.27,0-6.52.11c-2.55-5.86-5-11.72-7.47-17.63q-.16,7.71-.32,15.41c.68.81,1.37,1.62,2.05,2.44q-6.37.3-12.76.9c.73-.93,1.46-1.86,2.19-2.77q.53-16.47,1.06-33c-.65-.85-1.29-1.72-1.93-2.58h12.14l-1.35,1.66c3.13,7.89,6.37,15.67,9.72,23.46,3.46-7.86,6.8-15.65,10-23.47l-1.33-1.65H242l-2,2.54Z"/><path class="cls-6" d="M254.67,167.12l1.23,31.58a3.15,3.15,0,0,0,.71,1.8l1.53,2q-6.36-.74-12.74-1.18l1.41-1.68a2.44,2.44,0,0,0,.6-1.65l-.9-30.93a2.86,2.86,0,0,0-.66-1.71c-.49-.59-1-1.19-1.45-1.78h12.14l-1.32,1.83a2.71,2.71,0,0,0-.55,1.73Z"/><path class="cls-7" d="M284.71,199.41l2.44-.83.57,8.93q-13.44-3-27.07-4.72l1.44-1.75a2.13,2.13,0,0,0,.5-1.51q-.73-16.22-1.49-32.44a2.76,2.76,0,0,0-.62-1.59c-.52-.65-1-1.3-1.55-1.94h12.14q-.68,1-1.35,2a2.64,2.64,0,0,0-.47,1.64q.83,15.22,1.63,30.47,5.91.81,11.79,1.84A4.32,4.32,0,0,0,284.71,199.41Z"/><path class="cls-8" d="M309.58,163.5c-.53,1-1.06,2.05-1.59,3.05a4.93,4.93,0,0,0-.31.75c-2,6.78-4.1,13.23-6.19,19.4a3.64,3.64,0,0,0-.18,1.48q.62,9,1.22,18.09a5.46,5.46,0,0,0,.8,2.4l1.55,2.62q-6.19-1.78-12.46-3.28l1.28-1.76a3,3,0,0,0,.51-2L293.07,187a4.21,4.21,0,0,0-.38-1.48q-4.43-9.77-8.75-18.74a3.75,3.75,0,0,0-.4-.66c-.65-.89-1.31-1.77-2-2.65h12.14l-.81,1.4a3.81,3.81,0,0,0-.12,3.58c1.21,2.62,2.43,5.3,3.66,8h0q1.31-3.84,2.6-7.84a4.25,4.25,0,0,0-.61-3.71c-.33-.49-.66-1-1-1.45Z"/></g></g></svg>